<?xml version="1.0" standalone="no"?>
<!DOCTYPE svg PUBLIC "-//W3C//DTD SVG 20010904//EN"
 "http://www.w3.org/TR/2001/REC-SVG-20010904/DTD/svg10.dtd">
<svg version="1.0" xmlns="http://www.w3.org/2000/svg"
 width="810.000000pt" height="714.000000pt" viewBox="0 0 810.000000 714.000000"
 preserveAspectRatio="xMidYMid meet">

<g transform="translate(0.000000,714.000000) scale(0.100000,-0.100000)"
fill="#000000" stroke="none">
<path d="M5669 6120 c-201 -54 -402 -108 -448 -120 l-83 -23 103 -103 104
-104 -563 -563 -562 -562 -185 185 -185 185 -790 -790 -790 -790 127 -127 128
-128 662 662 663 663 185 -185 185 -185 690 690 690 690 100 -100 c54 -54 101
-97 104 -94 2 2 52 184 111 404 58 220 113 421 120 448 8 26 11 47 7 46 -4 0
-171 -45 -373 -99z"/>
<path d="M2290 1090 l0 -90 1950 0 1950 0 0 90 0 90 -1950 0 -1950 0 0 -90z"/>
</g>
</svg>
